PathFileType	4	(X/Y/Z)	C:/Users/opensim2020/Desktop/walking_exp_matlab/subject01_walking13_straight_01.trc																																																																																																																												
DataRate	CameraRate	NumFrames	NumMarkers	Units	OrigDataRate	OrigDataStartFrame	OrigNumFrames																																																																																																																								
100	100	5	42	mm	100	708	142																																																																																																																								
Frame#	Time	LFHD			RFHD			LBHD			RBHD			C7			T10			CLAV			STRN			RBAK			LSHO			LUPA			LELB			LFRM			LWRA			LWRB			LFIN			RSHO			RUPA			RELB			RFRM			RWRA			RWRB			RFIN			LASI			RASI			LPSI			RPSI			LTHI			LKNE			LTIB			LANK			LHEE			LTOE			RTHI			RKNE			RTIB			RANK			RHEE			RTOE			*39			*40			*41		
		X1	Y1	Z1	X2	Y2	Z2	X3	Y3	Z3	X4	Y4	Z4	X5	Y5	Z5	X6	Y6	Z6	X7	Y7	Z7	X8	Y8	Z8	X9	Y9	Z9	X10	Y10	Z10	X11	Y11	Z11	X12	Y12	Z12	X13	Y13	Z13	X14	Y14	Z14	X15	Y15	Z15	X16	Y16	Z16	X17	Y17	Z17	X18	Y18	Z18	X19	Y19	Z19	X20	Y20	Z20	X21	Y21	Z21	X22	Y22	Z22	X23	Y23	Z23	X24	Y24	Z24	X25	Y25	Z25	X26	Y26	Z26	X27	Y27	Z27	X28	Y28	Z28	X29	Y29	Z29	X30	Y30	Z30	X31	Y31	Z31	X32	Y32	Z32	X33	Y33	Z33	X34	Y34	Z34	X35	Y35	Z35	X36	Y36	Z36	X37	Y37	Z37	X38	Y38	Z38	X39	Y39	Z39	X40	Y40	Z40	X41	Y41	Z41	X42	Y42	Z42
																																																																																																																															
107	1.06	712.56165	1652.47058	-1077.22009	715.94104	1652.40784	-962.80017	589.80255	1632.7666	-1082.00757	590.39355	1631.89746	-960.74152	511.47018	1434.35962	-1045.58252	468.29398	1139.10522	-1026.24475	651.53979	1360.09961	-1034.8844	691.3172	1205.94373	-1038.65125	447.17789	1238.6803	-968.15356	598.36639	1392.33984	-1197.82617	598.08618	1214.11072	-1291.52161	630.42401	1063.78259	-1307.94385	737.0174	1008.38019	-1312.46167	868.10406	986.40015	-1270.1438	838.51428	942.97467	-1298.08777	920.05182	932.71686	-1302.52075	579.44409	1393.16199	-887.9762	493.26749	1203.08362	-790.48248	479.44275	1079.77795	-785.08417	486.79904	960.17035	-753.79724	546.26642	831.67462	-770.10486	502.07413	839.67584	-734.23376	528.21057	758.71216	-729.87305	636.71527	934.10474	-1141.10754	652.26086	936.13373	-922.90704	455.10825	943.76544	-1070.49585	468.4281	939.02087	-927.2597	553.1203	604.7594	-1183.73022	514.50555	473.02429	-1167.63379	421.40878	305.888	-1170.5918	340.42816	102.53374	-1117.73938	288.15402	87.62923	-1066.71558	474.05722	35.88245	-1117.7915	697.771	613.77625	-854.73901	768.36365	475.15033	-887.67786	758.86987	299.90939	-877.4726	800.42773	92.55647	-923.07458	768.83319	42.91691	-977.89288	944.88904	90.42179	-918.73279	713.46716	1687.81433	-985.02362	1973.15515	1023.61597	-3101.95874	2012.55469	1022.0697	-3140.64478
108	1.07	725.59424	1651.21887	-1075.21057	728.68103	1651.16443	-960.802	602.76703	1631.72852	-1080.36096	603.0235	1630.8324	-959.00104	524.06982	1433.27295	-1043.84192	479.85196	1137.93335	-1024.61304	664.15442	1358.98828	-1033.04016	704.00043	1204.87354	-1037.06836	460.0191	1237.33801	-966.53979	611.03204	1391.48682	-1196.08386	612.01001	1213.77344	-1290.177	645.74091	1063.77356	-1307.24438	753.93097	1011.48236	-1311.3822	885.29822	993.47791	-1268.43103	857.18835	949.11102	-1296.44153	938.94336	941.54663	-1300.54944	592.04443	1391.88416	-886.25885	504.67426	1202.14868	-789.13013	490.13123	1078.99402	-784.14557	495.58771	959.58502	-752.38562	552.53796	829.8067	-768.29144	508.33261	838.61432	-732.61206	533.31531	757.42188	-727.87122	648.95038	933.39203	-1140.50256	666.50201	934.73932	-922.38391	467.93365	942.96918	-1068.34802	482.38547	937.73297	-925.1402	560.80042	605.12054	-1184.19641	521.1925	473.53326	-1167.85413	425.87347	307.69443	-1171.13037	342.1821	105.31221	-1118.5896	289.49106	91.55067	-1067.7002	474.1521	35.83555	-1118.0863	709.21777	611.31445	-853.42572	780.71082	473.71429	-887.93982	777.54211	298.67035	-877.56665	826.97406	92.86388	-923.30029	797.56604	42.03638	-978.25397	971.48846	96.5477	-918.70575	726.31573	1686.54187	-982.98608	1973.1543	1023.42065	-3101.88989	2012.58594	1022.01886	-3140.62402
109	1.08	738.60217	1649.99194	-1073.10681	741.37183	1649.9375	-958.66101	615.79407	1630.63696	-1078.56311	615.75494	1629.823	-957.13092	536.77887	1432.09998	-1041.9093	492.71942	1136.60229	-1022.8667	676.9267	1357.88745	-1031.16675	716.92523	1203.80688	-1035.47742	473.00879	1235.84351	-964.91296	623.79242	1390.63745	-1194.00696	625.90381	1213.47546	-1288.77881	660.99249	1063.82104	-1306.67542	770.46826	1014.41626	-1310.14001	901.91589	1000.05487	-1266.62158	875.30634	954.94104	-1294.78247	957.20935	950.03754	-1298.91455	604.66339	1390.59937	-884.16736	516.20923	1201.13733	-787.59845	501.00037	1078.18066	-782.85193	504.59665	958.91638	-750.94122	559.71124	828.19379	-766.43286	515.50458	837.83179	-731.01099	538.95947	756.11621	-726.19037	661.70605	932.79138	-1139.59387	680.65985	933.26746	-921.92487	480.9429	942.19592	-1066.14746	496.34644	936.66431	-922.91302	569.12592	605.44257	-1184.59595	528.45905	473.92355	-1168.35974	430.88147	309.51761	-1171.78296	343.74561	108.39559	-1119.24036	291.12698	95.71963	-1069.03564	474.30115	35.83691	-1118.3783	721.37567	609.23322	-852.52356	793.08264	472.39041	-888.00739	795.45239	297.68213	-877.99963	850.90814	93.24641	-923.95929	823.30676	41.58459	-979.08759	995.30597	101.46254	-918.73181	739.10999	1685.29517	-980.84265	1973.12695	1023.50665	-3101.90259	2012.5531	1022.03387	-3140.56323
110	1.09	751.56512	1648.77966	-1070.87769	754.08337	1648.77795	-956.46637	628.77759	1629.53418	-1076.70142	628.44214	1628.74548	-955.29987	549.47699	1430.80322	-1039.77112	505.82529	1135.31592	-1021.13361	689.72504	1356.77795	-1029.09265	729.96527	1202.79907	-1033.79492	486.16638	1234.24695	-963.1217	636.54156	1389.8313	-1192.08008	639.72028	1213.16455	-1287.16223	676.03583	1063.82263	-1305.97949	786.65979	1017.23499	-1308.89185	918.04266	1006.1615	-1264.71814	892.8136	960.4129	-1293.03918	974.80817	957.88965	-1296.89209	617.35547	1389.17712	-882.19934	527.88409	1200.05103	-786.00085	511.86996	1077.26746	-781.40283	513.79053	958.15497	-749.49042	567.284	826.66821	-764.60699	523.07898	836.9433	-729.32184	545.28265	754.68518	-724.54382	674.49341	931.91626	-1139.04309	694.9303	931.81573	-921.49695	494.11725	941.29718	-1063.75586	510.64197	935.42969	-920.57977	578.22125	605.60175	-1184.82483	536.66681	474.14218	-1168.71521	436.50754	311.30505	-1172.43384	345.79953	111.53352	-1120.30518	292.96176	100.01569	-1070.1803	474.38837	35.62727	-1118.49585	734.00128	607.62402	-852.22327	805.59448	470.98755	-888.09686	812.2536	296.51007	-878.7135	872.11353	93.56775	-925.03589	845.84863	41.245	-980.61603	1016.17224	105.04375	-919.37982	751.92114	1684.13818	-978.73895	1973.18848	1023.40814	-3102.04956	2012.63623	1022.19592	-3140.70435
111	1.1	764.52155	1647.62476	-1068.62415	766.86664	1647.74951	-954.07758	641.70447	1628.40979	-1074.65344	641.07892	1627.70227	-953.18066	562.30115	1429.56531	-1037.66687	519.06982	1133.9364	-1019.29926	702.61316	1355.69751	-1026.98083	743.22968	1201.82178	-1032.14075	499.42792	1232.58923	-961.34558	649.39264	1389.04797	-1189.7699	653.47394	1212.91479	-1285.51172	690.8999	1063.97559	-1305.30225	802.47443	1019.84729	-1307.45923	933.58844	1011.73199	-1262.73743	909.74548	965.31757	-1291.10767	991.7627	965.18402	-1294.8562	630.18933	1387.77197	-879.94116	539.53094	1198.84985	-784.31488	522.8761	1076.34619	-779.83868	523.3891	957.29279	-747.8631	575.42389	825.1817	-762.83197	531.34009	836.0451	-727.6665	552.40131	753.37201	-722.98059	687.27161	931.17438	-1138.44214	709.40302	930.47211	-921.13385	507.50851	940.33301	-1061.32373	524.65839	934.30054	-918.29022	588.21155	605.52728	-1184.89172	545.75342	474.23032	-1168.9939	442.84012	313.07974	-1172.94421	348.13605	114.80779	-1121.44409	295.21536	104.80195	-1071.57739	474.7204	35.81524	-1118.74329	747.02509	606.13043	-852.63794	818.41718	469.78024	-887.96552	827.84998	295.42734	-879.54822	890.58063	93.3167	-926.48798	865.26721	40.87294	-982.19775	1034.41028	106.60796	-920.36548	764.70099	1683.03723	-976.44672	1973.10864	1023.37531	-3101.97827	2012.48828	1022.06781	-3140.82568
